<svg xmlns="http://www.w3.org/2000/svg" xmlns:xlink="http://www.w3.org/1999/xlink" width="500" zoomAndPan="magnify" viewBox="0 0 375 374.999991" height="500" preserveAspectRatio="xMidYMid meet" version="1.0"><defs><g/><clipPath id="b4d5d524a6"><path d="M 229.0625 195.09375 L 257.328125 195.09375 L 257.328125 223.363281 L 229.0625 223.363281 Z M 229.0625 195.09375 " clip-rule="nonzero"/></clipPath><clipPath id="74f8c8bfd2"><path d="M 243.195312 195.09375 C 235.390625 195.09375 229.0625 201.421875 229.0625 209.226562 C 229.0625 217.035156 235.390625 223.363281 243.195312 223.363281 C 251 223.363281 257.328125 217.035156 257.328125 209.226562 C 257.328125 201.421875 251 195.09375 243.195312 195.09375 Z M 243.195312 195.09375 " clip-rule="nonzero"/></clipPath><clipPath id="024ac90dff"><path d="M 0.0625 0.09375 L 28.328125 0.09375 L 28.328125 28.363281 L 0.0625 28.363281 Z M 0.0625 0.09375 " clip-rule="nonzero"/></clipPath><clipPath id="6d41f1fb34"><path d="M 14.195312 0.09375 C 6.390625 0.09375 0.0625 6.421875 0.0625 14.226562 C 0.0625 22.035156 6.390625 28.363281 14.195312 28.363281 C 22 28.363281 28.328125 22.035156 28.328125 14.226562 C 28.328125 6.421875 22 0.09375 14.195312 0.09375 Z M 14.195312 0.09375 " clip-rule="nonzero"/></clipPath><clipPath id="b29a7008ff"><rect x="0" width="29" y="0" height="29"/></clipPath></defs><rect x="-37.5" width="450" fill="#ffffff" y="-37.499999" height="449.999989" fill-opacity="1"/><rect x="-37.5" width="450" fill="#ffffff" y="-37.499999" height="449.999989" fill-opacity="1"/><g fill="#222222" fill-opacity="1"><g transform="translate(37.500002, 229.499985)"><g><path d="M 58.78125 1.71875 C 50.96875 1.71875 43.695312 0.40625 36.96875 -2.21875 C 30.25 -4.84375 24.363281 -8.535156 19.3125 -13.296875 C 14.257812 -18.066406 10.328125 -23.671875 7.515625 -30.109375 C 4.703125 -36.546875 3.296875 -43.53125 3.296875 -51.0625 C 3.296875 -58.6875 4.703125 -65.691406 7.515625 -72.078125 C 10.328125 -78.472656 14.234375 -84.003906 19.234375 -88.671875 C 24.242188 -93.347656 30.082031 -97 36.75 -99.625 C 43.425781 -102.25 50.675781 -103.5625 58.5 -103.5625 C 66.414062 -103.5625 73.660156 -102.316406 80.234375 -99.828125 C 86.816406 -97.347656 92.539062 -93.914062 97.40625 -89.53125 L 78.375 -70.375 C 76.09375 -72.851562 73.304688 -74.804688 70.015625 -76.234375 C 66.722656 -77.660156 62.882812 -78.375 58.5 -78.375 C 50.875 -78.375 44.628906 -75.941406 39.765625 -71.078125 C 34.898438 -66.222656 32.46875 -59.550781 32.46875 -51.0625 C 32.46875 -42.570312 34.898438 -35.847656 39.765625 -30.890625 C 44.628906 -25.929688 50.875 -23.453125 58.5 -23.453125 C 66.988281 -23.453125 73.757812 -26.078125 78.8125 -31.328125 L 97.96875 -12.15625 C 92.914062 -7.769531 87.242188 -4.359375 80.953125 -1.921875 C 74.660156 0.503906 67.269531 1.71875 58.78125 1.71875 Z M 58.78125 1.71875 "/></g></g></g><g fill="#222222" fill-opacity="1"><g transform="translate(141.329574, 229.499985)"><g><path d="M 41.34375 1.71875 C 32.65625 1.71875 25.09375 0.457031 18.65625 -2.0625 C 12.226562 -4.59375 6.296875 -8.625 0.859375 -14.15625 L 18.734375 -32.03125 C 22.453125 -28.507812 26.359375 -25.816406 30.453125 -23.953125 C 34.554688 -22.097656 38.945312 -21.171875 43.625 -21.171875 C 47.53125 -21.171875 50.484375 -21.765625 52.484375 -22.953125 C 54.492188 -24.148438 55.5 -25.796875 55.5 -27.890625 C 55.5 -30.367188 54.351562 -32.347656 52.0625 -33.828125 C 49.769531 -35.304688 46.835938 -36.664062 43.265625 -37.90625 C 39.691406 -39.144531 35.878906 -40.550781 31.828125 -42.125 C 27.773438 -43.695312 23.957031 -45.675781 20.375 -48.0625 C 16.800781 -50.445312 13.867188 -53.546875 11.578125 -57.359375 C 9.296875 -61.171875 8.15625 -65.984375 8.15625 -71.796875 C 8.15625 -78.378906 9.726562 -84.050781 12.875 -88.8125 C 16.019531 -93.582031 20.453125 -97.234375 26.171875 -99.765625 C 31.890625 -102.296875 38.613281 -103.5625 46.34375 -103.5625 C 53.96875 -103.5625 61.046875 -102.34375 67.578125 -99.90625 C 74.109375 -97.476562 79.519531 -94.019531 83.8125 -89.53125 L 65.796875 -71.65625 C 62.648438 -74.707031 59.503906 -76.972656 56.359375 -78.453125 C 53.210938 -79.929688 49.78125 -80.671875 46.0625 -80.671875 C 43.101562 -80.671875 40.738281 -80.191406 38.96875 -79.234375 C 37.207031 -78.285156 36.328125 -76.859375 36.328125 -74.953125 C 36.328125 -72.660156 37.472656 -70.796875 39.765625 -69.359375 C 42.054688 -67.929688 44.988281 -66.625 48.5625 -65.4375 C 52.132812 -64.25 55.945312 -62.890625 60 -61.359375 C 64.050781 -59.835938 67.863281 -57.859375 71.4375 -55.421875 C 75.019531 -52.992188 77.953125 -49.820312 80.234375 -45.90625 C 82.523438 -42 83.671875 -36.992188 83.671875 -30.890625 C 83.671875 -20.492188 79.972656 -12.457031 72.578125 -6.78125 C 65.191406 -1.113281 54.78125 1.71875 41.34375 1.71875 Z M 41.34375 1.71875 "/></g></g></g><g clip-path="url(#b4d5d524a6)"><g clip-path="url(#74f8c8bfd2)"><g transform="matrix(1, 0, 0, 1, 229, 195)"><g clip-path="url(#b29a7008ff)"><g clip-path="url(#024ac90dff)"><g clip-path="url(#6d41f1fb34)"><path fill="#0a0a0a" d="M 0.0625 0.09375 L 28.328125 0.09375 L 28.328125 28.363281 L 0.0625 28.363281 Z M 0.0625 0.09375 " fill-opacity="1" fill-rule="nonzero"/></g></g></g></g></g></g></svg>